<?xml version="1.0" encoding="UTF-8"?><svg viewBox="0 0 359 59" xmlns="http://www.w3.org/2000/svg" xmlns:xlink="http://www.w3.org/1999/xlink"><defs><path id="path-1" d="M.175.958h6.809v39.34H.175z"/><path id="path-3" d="M.073.72h47.084v30.532H.073z"/><path id="path-5" d="M.277.42h38.182V41H.277z"/></defs><g id="Symbols" stroke="none" stroke-width="1" fill="none" fill-rule="evenodd"><g id="Logo-Main" transform="translate(0 -1)"><g id="Group-36"><path d="M237.575 24.378v22.876a.324.324 0 01-.323.324h-6.163a.324.324 0 01-.323-.324V24.378h-3.477a.154.154 0 01-.154-.154v-5.442c0-.085.069-.154.154-.154h3.477v-6.635c0-.22.154-.413.37-.46L237 10.23a.473.473 0 01.575.462v7.936h3.478c.086 0 .155.07.155.154v5.442a.154.154 0 01-.155.154h-3.478z" id="Fill-1" fill="#141E47"/><path d="M250.905 47.578h-6.426a.192.192 0 01-.192-.191v-28.63c0-.071.058-.128.13-.128h6.247a.13.13 0 01.13.129v5.816c0 .052.066.07.09.024 1.177-2.29 4.105-5.97 8.182-5.97h.792c.091 0 .165.075.165.166v7.39a.163.163 0 01-.2.162c-.316-.074-.92-.206-1.21-.206-4.592 0-7.517 3.434-7.517 5.852v15.395a.191.191 0 01-.19.19" id="Fill-3" fill="#141E47"/><path d="M271.941 17.82c-2.843 0-4.503.196-7.857.883a.14.14 0 00-.112.135v5.476c0 .085.082.147.165.132 3.419-.63 5.061-.877 6.997-.877 4.136-.05 6.154 1.462 6.154 6.505v1.261c-1.714-1.158-4.035-1.914-6.91-1.914-6.507 0-10.542 4.287-10.542 9.581 0 5.598 4.226 9.586 9.623 9.586 2.915 0 4.555-.75 5.065-1.03a.337.337 0 00.174-.304V43.85c0-.065-.063-.11-.123-.084-.344.146-1.362.534-2.482.534-3.127 0-5.146-2.472-5.146-5.499 0-2.772 2.019-5.093 5.146-5.093 3.177 0 5.801 2.321 5.801 5.093v8.437a.34.34 0 00.339.34h5.525a.34.34 0 00.339-.34v-19.23c0-6.304-3.833-10.189-12.156-10.189" id="Fill-5" fill="#141E47"/><path d="M304.909 47.578h-7.24a.662.662 0 01-.61-.406L285.21 18.957a.236.236 0 01.218-.328h6.93a.48.48 0 01.45.306l8.504 21.502a.056.056 0 00.105 0l8.8-21.507a.486.486 0 01.45-.301h6.432c.169 0 .284.172.218.328L305.52 47.17a.664.664 0 01-.612.407" id="Fill-7" fill="#141E47"/><path d="M328.372 34.818h19.438c.194 0 .36-.137.402-.326.082-.371.133-.793.133-1.391 0-9.178-6.659-15.938-15.637-15.938-9.027 0-15.686 6.76-15.686 15.938 0 9.13 6.708 15.988 17.1 15.988 6.384 0 10.461-2.258 13.594-5.05a.426.426 0 00.022-.61l-3.49-3.666a.42.42 0 00-.594-.012c-2.199 2.062-5.245 3.49-9.533 3.49-5.902 0-10.113-4.061-10.113-10.308 0-4.453 2.672-9.967 8.7-9.967 4.238 0 7.062 2.52 8.07 6.608h-12.426a.675.675 0 00-.654.518c-.328 1.338-.296 2.74.018 4.19.067.31.338.536.656.536" id="Fill-9" fill="#141E47"/><g id="Group-13" transform="translate(352 7.28)"><mask id="mask-2" fill="#fff"><use xlink:href="#path-1"/></mask><path d="M6.71 40.297H.45a.275.275 0 01-.275-.274V1.233c0-.153.123-.276.274-.276h6.26c.152 0 .275.124.275.275v38.79a.275.275 0 01-.275.276" id="Fill-11" fill="#141E47" mask="url(#mask-2)"/></g><path d="M160.498 47.578h-6.133a.338.338 0 01-.338-.338V18.967c0-.187.151-.338.338-.338h5.829c.187 0 .338.15.338.338v5.375c0 .11.146.15.199.052 1.241-2.297 4.116-5.765 8.074-5.765h.814c.079 0 .143.064.143.142v7.416a.142.142 0 01-.186.135 4.763 4.763 0 00-1.224-.182c-4.592 0-7.516 3.434-7.516 5.852V47.24a.338.338 0 01-.338.338" id="Fill-14" fill="#2076BC"/><path d="M179.462 47.578h-6.133a.338.338 0 01-.338-.338V8.576c0-.186.15-.338.338-.338h6.133c.187 0 .338.152.338.338V47.24a.338.338 0 01-.338.338" id="Fill-16" fill="#2076BC"/><path d="M209.053 8.238a.15.15 0 00-.15.15v24.713c0 5.043-3.935 9.483-9.434 9.483-5.497 0-9.43-4.44-9.43-9.532 0-5.093 3.933-9.434 9.43-9.434 3.026 0 4.941 1.14 5.545 1.561a.132.132 0 00.207-.11v-5.376a.24.24 0 00-.138-.217c-2.007-.945-3.967-1.809-7.478-1.809-8.374 0-14.73 7.011-14.73 15.537 0 8.521 6.356 15.331 14.73 15.331 4.64 0 8.62-1.749 11.385-4.609a.154.154 0 01.266.105v3.378c0 .093.075.17.168.17h6.137a.152.152 0 00.151-.152V8.388a.15.15 0 00-.15-.15h-6.509z" id="Fill-18" fill="#2076BC"/><path d="M149.485 28.668c-.841-2.623-2.458-4.89-4.37-6.717-3.84-3.726-9.923-5.083-14.82-4.653-4.941.25-9.541 2.726-12.798 6.43-3.955 4.47-6.194 9.573-8.1 14.526-.061.16-.287.15-.337-.015l-5.811-19.343a.393.393 0 00-.377-.281h-6.656a.395.395 0 00-.377.279l-5.6 18.334c-.05.169-.29.17-.343.002l-5.84-18.37a.394.394 0 00-.376-.274h-6.552a.403.403 0 00-.381.533l9.632 28.083c.074.215.277.36.505.36h6c.233 0 .439-.15.509-.371l5.99-18.691 6.086 18.694a.535.535 0 00.508.368h5.995a.509.509 0 00.498-.335c1.454-4.191 6.368-24.395 20.274-24.395 6.695 0 10.492 6.083 10.492 10.31 0 4.23-1.693 7.943-5.743 9.428-3.184 1.38-7.304.512-9.75-1.452-2.163-1.848-3.685-4.067-4.117-6.912-.053-.353-.475-.49-.68-.197-.837 1.207-2.41 3.617-3.454 6.119-.134.322-.12.68.068.976 1.757 2.75 7.064 7.913 14.863 7.913 6.604 0 9.873-2.914 11.823-4.923 1.92-2.023 3.268-4.65 3.735-7.336a15.926 15.926 0 00-.496-8.09" id="Fill-20" fill="#2076BC"/><path d="M17.43 35.373l-3.345 4.249a.16.16 0 00-.009.184 25.374 25.374 0 003.132 3.94l3.351-4.245a19.949 19.949 0 01-2.87-4.103.155.155 0 00-.259-.025" id="Fill-22" fill="#141E47"/><path d="M55.037 28.744a.563.563 0 00-.116.27c-1.373 9.625-9.648 17.054-19.645 17.054-3.025 0-5.883-.7-8.452-1.914a.127.127 0 00-.153.036l-3.225 4.087a.129.129 0 00.04.194 25.048 25.048 0 0011.79 2.933c13.896 0 25.202-11.305 25.202-25.202 0-1.197-.086-2.375-.248-3.528a.172.172 0 00-.304-.081l-4.89 6.15z" id="Fill-24" fill="#141E47"/><g id="Group-28" transform="translate(10 .28)"><mask id="mask-4" fill="#fff"><use xlink:href="#path-3"/></mask><path d="M25.275 6.056c8.155 0 15.171 4.943 18.228 11.986l3.654-4.598C42.811 5.85 34.633.72 25.275.72 11.38.72.073 12.026.073 25.922c0 1.829.2 3.61.572 5.33l4.803-6.101c.41-10.595 9.133-19.095 19.827-19.095" id="Fill-26" fill="#141E47" mask="url(#mask-4)"/></g><g id="Group-31" transform="translate(5 18.28)"><mask id="mask-6" fill="#fff"><use xlink:href="#path-5"/></mask><path d="M38.15.42h-5.738a.9.9 0 00-.706.342L.344 40.5c-.16.202-.016.5.242.5h5.738a.902.902 0 00.706-.343L38.392.92a.308.308 0 00-.242-.5" id="Fill-29" fill="#2076BC" mask="url(#mask-6)"/></g><path d="M26.922 18.7h-5.738a.899.899 0 00-.707.344L.067 44.97a.309.309 0 00.242.5h5.739a.898.898 0 00.706-.344L27.164 19.2a.308.308 0 00-.242-.5" id="Fill-32" fill="#2076BC"/><path d="M40.234 35.824h5.732a.9.9 0 00.704-.34l21.283-26.78a.309.309 0 00-.241-.501H61.98a.898.898 0 00-.704.34l-21.284 26.78c-.16.203-.016.5.242.5" id="Fill-34" fill="#2076BC"/></g></g></g></svg>